Coordinates
version=1
nRows=11
nColumns=40
inDegrees=yes

Units are S.I. units (second, meters, Newtons, ...)
If the header above contains a line with 'inDegrees', this indicates whether rotational values are in degrees (yes) or radians (no).

endheader
time	pelvis_tilt	pelvis_list	pelvis_rotation	pelvis_tx	pelvis_ty	pelvis_tz	hip_flexion_r	hip_adduction_r	hip_rotation_r	knee_angle_r	knee_angle_r_beta	ankle_angle_r	subtalar_angle_r	mtp_angle_r	hip_flexion_l	hip_adduction_l	hip_rotation_l	knee_angle_l	knee_angle_l_beta	ankle_angle_l	subtalar_angle_l	mtp_angle_l	lumbar_extension	lumbar_bending	lumbar_rotation	arm_flex_r	arm_add_r	arm_rot_r	elbow_flex_r	pro_sup_r	wrist_flex_r	wrist_dev_r	arm_flex_l	arm_add_l	arm_rot_l	elbow_flex_l	pro_sup_l	wrist_flex_l	wrist_dev_l
      7.32500000	     35.92080466	      3.71755211	   -176.02111435	      0.39669211	      0.79690796	     -0.58367022	     65.85290614	    -14.09462005	     -8.72122712	     26.69367596	      0.46589254	     -1.43083933	      0.00000000	      0.00000000	     69.24329265	    -11.09454545	     -5.00389796	     27.68452987	      0.48318620	     -3.30363981	      0.00000000	      0.00000000	    -47.79536424	      1.88136448	     -2.38987416	     64.22906136	    -16.18257440	     59.59111992	     22.06450474	     69.84844386	      0.00000000	      0.00000000	     64.22585307	     -7.70811523	     10.68488625	     16.00543377	     28.46449377	      0.00000000	      0.00000000
      7.33000000	     35.62723279	      3.50201513	   -175.98307184	      0.39623281	      0.79809974	     -0.58403586	     65.44815535	    -14.18474864	     -8.66232853	     26.52317639	      0.46291676	     -1.48095552	      0.00000000	      0.00000000	     68.62160949	    -10.99531782	     -5.29843933	     27.27864756	      0.47610222	     -3.44126985	      0.00000000	      0.00000000	    -47.97819494	      1.66741772	     -2.52045205	     63.93795792	    -16.18139756	     59.05432064	     22.22784109	     69.44905177	      0.00000000	      0.00000000	     64.29569835	     -7.71712443	     10.94701597	     15.73020903	     28.72102456	      0.00000000	      0.00000000
      7.33500000	     35.50708980	      3.58142074	   -175.98984504	      0.39603021	      0.79876710	     -0.58438387	     65.21648846	    -14.11130887	     -8.84081087	     26.40135699	      0.46079061	     -1.54980886	      0.00000000	      0.00000000	     68.40790639	    -11.08024287	     -5.31121489	     27.09170170	      0.47283939	     -3.69451126	      0.00000000	      0.00000000	    -47.91687329	      1.69639484	     -2.43275746	     64.16713281	    -16.45517333	     60.80101027	     22.22226067	     71.20411645	      0.00000000	      0.00000000	     64.06570039	     -7.78225170	     11.13251804	     15.92179028	     28.33779112	      0.00000000	      0.00000000
      7.34000000	     35.31613553	      3.61917043	   -175.98367000	      0.39559102	      0.79974810	     -0.58454233	     64.79305817	    -14.05010473	     -9.00978042	     26.08814457	      0.45532402	     -1.68823850	      0.00000000	      0.00000000	     68.05949377	    -11.10734284	     -5.32837376	     26.85515143	      0.46871081	     -3.74981084	      0.00000000	      0.00000000	    -47.96362160	      1.70131899	     -2.41236080	     63.60645122	    -16.22312241	     59.06097407	     22.32097191	     69.81468980	      0.00000000	      0.00000000	     63.94811779	     -7.83333363	     11.35334783	     15.83026929	     29.15187128	      0.00000000	      0.00000000
      7.34500000	     35.25005983	      3.65468059	   -175.91469161	      0.39537797	      0.80024737	     -0.58475652	     64.62831292	    -14.07796825	     -9.19480253	     25.98745860	      0.45356672	     -1.76012898	      0.00000000	      0.00000000	     67.89804996	    -11.06618094	     -5.22646129	     26.66454754	      0.46538415	     -3.85492274	      0.00000000	      0.00000000	    -47.82991619	      1.76845399	     -2.43560193	     63.73193268	    -16.43783838	     60.46798579	     22.34793822	     71.88954922	      0.00000000	      0.00000000	     63.70486354	     -7.85413083	     11.16308192	     15.97453394	     28.53112464	      0.00000000	      0.00000000
      7.35000000	     34.95968453	      3.66324560	   -175.96510893	      0.39492642	      0.80123427	     -0.58514381	     64.19774943	    -13.96745013	     -9.29460573	     25.79959125	      0.45028781	     -1.86058153	      0.00000000	      0.00000000	     67.47374439	    -11.17355200	     -5.32482596	     26.49995539	      0.46251147	     -4.00270040	      0.00000000	      0.00000000	    -47.96223371	      1.68460827	     -2.40993642	     63.23206359	    -16.19629252	     58.89990497	     22.41358164	     70.48299279	      0.00000000	      0.00000000	     63.71590838	     -7.91111996	     11.38186715	     15.70910539	     29.18764494	      0.00000000	      0.00000000
      7.35500000	     34.73162551	      3.72703866	   -175.99776411	      0.39441100	      0.80204510	     -0.58546622	     63.83864646	    -13.88731834	     -9.57816858	     25.68185582	      0.44823294	     -1.89778041	      0.00000000	      0.00000000	     67.15698674	    -11.27646519	     -5.33814959	     26.38503771	      0.46050578	     -4.00429126	      0.00000000	      0.00000000	    -48.01347896	      1.66336910	     -2.26300205	     62.74116739	    -16.08999724	     57.68067035	     22.47758432	     69.24935909	      0.00000000	      0.00000000	     63.52223391	     -7.90029584	     11.63937309	     15.72835813	     29.95309332	      0.00000000	      0.00000000
      7.36000000	     34.59884267	      3.58974788	   -176.03544901	      0.39411424	      0.80259642	     -0.58586401	     63.68487997	    -13.88635429	     -9.43738973	     25.63017138	      0.44733088	     -1.94165500	      0.00000000	      0.00000000	     66.85592711	    -11.26295622	     -5.45963149	     26.20286286	      0.45732623	     -4.06634243	      0.00000000	      0.00000000	    -47.94523775	      1.50546736	     -2.35317711	     62.78820955	    -16.17959714	     58.82990777	     22.43944045	     70.35223804	      0.00000000	      0.00000000	     63.29498300	     -7.98771029	     11.65587056	     15.82881298	     29.68483927	      0.00000000	      0.00000000
      7.36500000	     34.37054026	      3.64246443	   -176.03184080	      0.39369059	      0.80327219	     -0.58604239	     63.34454325	    -13.82487113	     -9.59849290	     25.51524834	      0.44532509	     -1.99391764	      0.00000000	      0.00000000	     66.57459709	    -11.33159004	     -5.46096439	     26.14178900	      0.45626029	     -4.07174582	      0.00000000	      0.00000000	    -47.96047947	      1.53061123	     -2.25077660	     62.65576505	    -16.25374493	     59.13540288	     22.41439194	     70.74388550	      0.00000000	      0.00000000	     63.07985659	     -7.93767406	     11.66118529	     16.02157728	     29.68764178	      0.00000000	      0.00000000
      7.37000000	     34.24422318	      4.10970755	   -175.61110607	      0.39354147	      0.80367332	     -0.58533191	     63.00352176	    -14.00103653	    -10.51798192	     25.49969878	      0.44505370	     -2.02037118	      0.00000000	      0.00000000	     66.55067416	    -11.07776310	     -4.47680300	     25.95057889	      0.45292304	     -4.31151605	      0.00000000	      0.00000000	    -47.82699087	      2.22119868	     -2.18496562	     61.96801410	    -15.91502546	     56.80340802	     22.33423005	     68.54195924	      0.00000000	      0.00000000	     62.70762509	     -7.99108596	     11.87680359	     16.23524790	     30.60667074	      0.00000000	      0.00000000
      7.37500000	     34.13286921	      4.14847321	   -175.45259886	      0.39308376	      0.80384006	     -0.58534085	     62.90911574	    -14.17384063	    -10.90995102	     25.73040766	      0.44908033	     -1.73454915	      0.00000000	      0.00000000	     66.45524493	    -10.98913697	     -4.43209710	     26.00775602	      0.45392097	     -4.07120362	      0.00000000	      0.00000000	    -47.67154849	      2.35245984	     -2.34042962	     61.45408576	    -15.99536602	     56.16232659	     22.96203554	     67.83035287	      0.00000000	      0.00000000	     62.13450040	     -8.25100413	     11.85051674	     16.84186028	     30.98961815	      0.00000000	      0.00000000
